<svg xmlns="http://www.w3.org/2000/svg" viewBox="0 0 256 256">
  <rect fill="#EF4444" x="0" y="0" width="256" height="256"/>
  <g fill="#FFFFFF">
    <!-- Top-left position marker -->
    <rect x="16" y="16" width="80" height="80"/>
    <rect fill="#EF4444" x="32" y="32" width="48" height="48"/>
    <rect x="40" y="40" width="32" height="32"/>
    
    <!-- Top-right position marker -->
    <rect x="160" y="16" width="80" height="80"/>
    <rect fill="#EF4444" x="176" y="32" width="48" height="48"/>
    <rect x="184" y="40" width="32" height="32"/>
    
    <!-- Bottom-left position marker -->
    <rect x="16" y="160" width="80" height="80"/>
    <rect fill="#EF4444" x="32" y="176" width="48" height="48"/>
    <rect x="40" y="184" width="32" height="32"/>
    
    <!-- Data pattern (simplified QR grid) -->
    <rect x="16" y="112" width="16" height="16"/>
    <rect x="48" y="112" width="16" height="16"/>
    <rect x="80" y="112" width="16" height="16"/>
    <rect x="16" y="128" width="16" height="16"/>
    <rect x="64" y="128" width="16" height="16"/>
    <rect x="112" y="16" width="16" height="16"/>
    <rect x="112" y="32" width="16" height="16"/>
    <rect x="112" y="64" width="16" height="16"/>
    <rect x="112" y="80" width="16" height="16"/>
    <rect x="128" y="48" width="16" height="16"/>
    <rect x="144" y="16" width="16" height="16"/>
    <rect x="144" y="64" width="16" height="16"/>
    <rect x="144" y="80" width="16" height="16"/>
    <rect x="112" y="112" width="16" height="16"/>
    <rect x="128" y="112" width="16" height="16"/>
    <rect x="144" y="112" width="16" height="16"/>
    <rect x="128" y="144" width="16" height="16"/>
    <rect x="160" y="112" width="16" height="16"/>
    <rect x="176" y="112" width="16" height="16"/>
    <rect x="192" y="112" width="16" height="16"/>
    <rect x="208" y="112" width="16" height="16"/>
    <rect x="224" y="112" width="16" height="16"/>
    <rect x="160" y="128" width="16" height="16"/>
    <rect x="192" y="128" width="16" height="16"/>
    <rect x="224" y="128" width="16" height="16"/>
    <rect x="160" y="144" width="16" height="16"/>
    <rect x="176" y="144" width="16" height="16"/>
    <rect x="208" y="144" width="16" height="16"/>
    <rect x="112" y="160" width="16" height="16"/>
    <rect x="128" y="160" width="16" height="16"/>
    <rect x="112" y="176" width="16" height="16"/>
    <rect x="144" y="176" width="16" height="16"/>
    <rect x="112" y="192" width="16" height="16"/>
    <rect x="128" y="192" width="16" height="16"/>
    <rect x="144" y="192" width="16" height="16"/>
    <rect x="112" y="208" width="16" height="16"/>
    <rect x="144" y="208" width="16" height="16"/>
    <rect x="112" y="224" width="16" height="16"/>
    <rect x="128" y="224" width="16" height="16"/>
    <rect x="144" y="224" width="16" height="16"/>
    <rect x="160" y="160" width="16" height="16"/>
    <rect x="192" y="160" width="16" height="16"/>
    <rect x="208" y="160" width="16" height="16"/>
    <rect x="224" y="160" width="16" height="16"/>
    <rect x="176" y="176" width="16" height="16"/>
    <rect x="208" y="176" width="16" height="16"/>
    <rect x="160" y="192" width="16" height="16"/>
    <rect x="176" y="192" width="16" height="16"/>
    <rect x="224" y="192" width="16" height="16"/>
    <rect x="160" y="208" width="16" height="16"/>
    <rect x="192" y="208" width="16" height="16"/>
    <rect x="224" y="208" width="16" height="16"/>
    <rect x="160" y="224" width="16" height="16"/>
    <rect x="176" y="224" width="16" height="16"/>
    <rect x="192" y="224" width="16" height="16"/>
  </g>
</svg>
