<?xml version="1.0" encoding="UTF-8"?><svg id="Layer_2" xmlns="http://www.w3.org/2000/svg" viewBox="0 0 315.85 63.69"><defs><style>.cls-1{fill:#fdb913;}.cls-2{fill:#231f20;}</style></defs><path class="cls-2" d="m115.51,19.3c-.64,0-1.45.04-1.98.07-.24.01-.41.02-.48.02-.08,0-.24,0-.47-.02-.57-.03-1.52-.07-2.62-.07-.21,0-.83,0-.83.53,0,.3.26.53.59.53,1.41,0,1.41.37,1.41.59,0,.36-.02.75-.32,1.86-.68,2.49-2.08,7.02-3.2,10.66-.49,1.59-.93,3.02-1.24,4.04l-5.77-16.48c-.42-1.19-.62-1.63-1.06-1.63s-.59.32-1.05,1.6l-6.12,16.49c-2.19-7.75-3.55-12.65-3.82-13.81l-.19-.84c-.2-.86-.38-1.61-.38-1.88s.14-.4.22-.45c.3-.15.84-.15,1.04-.15.59,0,.62-.44.62-.53,0-.35-.29-.53-.86-.53-1.07,0-2.05.04-2.63.07-.24.01-.41.02-.49.02-.1,0-.34,0-.66-.02-.73-.03-1.83-.07-2.92-.07-.7,0-.8.33-.8.53,0,.12.04.53.59.53.26,0,.94.04,1.25.16.66.25,1.01.61,1.48,2.16l5.39,17.97c.62,2.12.79,2.62,1.36,2.62.61,0,.81-.53,1.29-1.81.85-2.21,3.61-9.57,5.26-13.97l.8-2.15,5.68,16.14c.44,1.24.66,1.78,1.21,1.78.58,0,.75-.48,1.57-2.82.59-1.68,1.61-4.83,2.7-8.17,1.08-3.33,2.2-6.77,2.88-8.71.56-1.63,1.02-2.8,1.78-3.08.28-.1.8-.13.92-.13.35,0,.59-.22.59-.56,0-.15-.07-.5-.74-.5Z"/><path class="cls-2" d="m144.93,42.84h2.15c.39,0,1.04,0,1.04-.56,0-.27-.26-.5-.59-.5-.17,0-.58,0-1.13-.09-.78-.12-1.99-.48-3.52-2.09-1.53-1.64-3.32-3.94-5.39-6.59l-.71-.91c2.42-2.3,3.56-4.54,3.56-7.03,0-2.19-1.4-3.78-2.22-4.38-1.71-1.23-3.86-1.39-5.73-1.39-.59,0-1.72.04-2.56.06-.5.02-.89.03-1.01.03-.04,0-.18,0-.4-.01-.65-.02-2-.08-3.03-.08-.53,0-.8.19-.8.56,0,.28.24.5.56.5.3,0,.76.03.96.08.78.17,1,.46,1.05,1.44.06.96.06,1.81.06,6.53v5.33c0,2.84,0,5.28-.15,6.53-.12.85-.25,1.32-.63,1.4-.32.07-.63.11-.84.11-.38,0-.56.26-.56.5,0,.37.27.56.8.56.77,0,2.24-.06,2.72-.08h.13s.16,0,.35,0c.68.03,2.09.08,3.38.08.74,0,.8-.43.8-.56,0-.24-.17-.5-.56-.5-.25,0-.9-.06-1.32-.12-.59-.08-.81-.4-.91-1.39-.15-1.25-.15-3.7-.15-6.54v-.65s3.62.06,3.62.06c.07,0,.08,0,.14.06.25.33.66.89,1.13,1.54.65.9,1.44,1.98,2.17,2.94l.39.51c1.53,2.02,2.54,3.35,3.8,4.03.86.46,1.69.61,3.39.61Zm-14.65-21.71c0-.05.01-.06.02-.06.23-.07.99-.17,1.94-.17,3.09,0,4.93,2.15,4.93,5.75,0,2.02-.64,3.67-1.71,4.41-.67.47-1.51.52-2.09.52-1.37,0-2.67-.23-3.02-.44-.06-.03-.06-.05-.06-.09v-9.91Z"/><path class="cls-2" d="m163.25,41.79c-.25,0-.9-.06-1.32-.12-.6-.08-.81-.4-.91-1.39-.15-1.25-.15-3.7-.15-6.54v-5.33c0-4.72,0-5.57.06-6.53.06-1.1.33-1.34.86-1.43.36-.06.52-.09.7-.09.32,0,.56-.21.56-.5,0-.37-.27-.56-.8-.56-.65,0-1.8.05-2.47.07-.27.01-.45.02-.5.02s-.22,0-.47-.02c-.67-.03-1.87-.07-2.59-.07-.53,0-.8.19-.8.56,0,.28.24.5.56.5.17,0,.54.02.87.11.43.1.72.37.79,1.41.06.96.06,1.81.06,6.53v5.33c0,2.84,0,5.28-.15,6.53-.12.85-.25,1.32-.63,1.4-.32.07-.64.11-.84.11-.38,0-.56.26-.56.5,0,.37.27.56.8.56.65,0,1.8-.05,2.47-.07.27-.01.45-.02.5-.02.03,0,.16,0,.35.01.68.03,2.09.08,3.38.08.74,0,.8-.43.8-.56,0-.24-.17-.5-.56-.5Z"/><path class="cls-2" d="m198.55,41.79c-.25,0-.9-.06-1.32-.12-.6-.08-.81-.4-.91-1.39-.15-1.25-.15-3.7-.15-6.54v-5.33c0-4.72,0-5.57.06-6.53.06-1.1.33-1.34.86-1.43.36-.06.52-.09.7-.09.32,0,.56-.21.56-.5,0-.37-.27-.56-.8-.56-.65,0-1.8.05-2.47.07-.27.01-.45.02-.5.02s-.22,0-.47-.02c-.67-.03-1.87-.07-2.59-.07-.53,0-.8.19-.8.56,0,.28.24.5.56.5.17,0,.54.02.87.11.43.1.72.37.79,1.41.06.96.06,1.81.06,6.53v5.33c0,2.84,0,5.28-.15,6.53-.12.87-.25,1.32-.63,1.4-.32.07-.63.11-.84.11-.38,0-.56.26-.56.5,0,.37.27.56.8.56.65,0,1.8-.05,2.47-.07.27-.01.45-.02.5-.02.03,0,.16,0,.35.01.68.03,2.09.08,3.38.08.74,0,.8-.43.8-.56,0-.24-.17-.5-.56-.5Z"/><path class="cls-2" d="m209.22,42.84c.95,0,1.86-.04,2.41-.07.24-.01.42-.02.5-.02.08,0,.22,0,.44.02.54.03,1.53.07,2.78.07.57,0,.86-.19.86-.56,0-.25-.17-.5-.56-.5-.08,0-.8,0-1.42-.17-.59-.17-.9-.72-.96-3.22l-.37-13.65c1.42,1.59,4.35,4.84,7.34,8.06,3.23,3.47,7.6,7.93,7.92,8.22,1.75,1.75,2.06,2.03,2.44,2.03.59,0,.59-.52.59-2.47l.06-17.76c0-1.94.17-2.24.88-2.39.33-.08.51-.08.65-.08.45,0,.65-.27.65-.53,0-.53-.6-.53-.86-.53-.83,0-1.56.04-2.04.07-.24.01-.43.02-.54.02s-.34-.01-.64-.02c-.63-.03-1.59-.07-2.51-.07-.28,0-.92,0-.92.53,0,.33.21.53.56.53.2,0,.89.03,1.41.14.68.18.91.57.95,2.58l.32,14.57c-.52-.56-1.24-1.35-2.08-2.28-1.37-1.5-3.04-3.33-4.62-5.03-4.87-5.22-9.2-9.9-9.64-10.4-.08-.08-.16-.17-.26-.28-.44-.49-.72-.78-1.03-.78-.65,0-.65.89-.65,1.83l-.03,17.36c0,2.63-.15,3.4-.69,3.55-.37.12-.85.17-1.14.17-.39,0-.56.25-.56.5,0,.56.58.56.8.56Z"/><path class="cls-2" d="m263.78,22.85c-3.48-3.6-8.69-3.57-11.8-3.55h-.58c-1.26,0-2.58.05-3.37.07-.35.01-.61.02-.72.02-.04,0-.18,0-.39-.01-.65-.02-2-.08-3.03-.08-.53,0-.8.19-.8.56,0,.28.24.5.56.5.3,0,.76.03.96.08.78.17,1,.46,1.05,1.44.06.96.06,1.81.06,6.53v5.33c0,2.84,0,5.28-.15,6.53-.12.85-.25,1.32-.63,1.4-.32.07-.64.11-.84.11-.38,0-.56.26-.56.5,0,.37.27.56.8.56.21,0,.48-.01.77-.03.32-.02.67-.03,1-.03.63-.03,1.14-.03,1.2-.03.07,0,.36.02.79.06.44.03,1.04.08,1.7.12,1.73.12,3.16.18,4.24.18,3.92,0,7.17-1.24,9.41-3.58,2.14-2.25,3.36-5.44,3.36-8.76,0-3.94-1.65-6.48-3.03-7.92Zm-14.88,5.07c0-2.29,0-5.42.03-6.45,0-.23.04-.26.19-.32.16-.07,1.13-.18,1.83-.18,3.92,0,7.06.57,9.68,3.33,1.05,1.11,2.82,3.54,2.82,7.42,0,2.88-.92,5.63-2.33,7.02-1.73,1.73-4.28,2.73-6.99,2.73-3.43,0-4.56-.58-4.9-1.08-.09-.12-.21-.6-.27-2.13-.03-.55-.06-3.32-.06-6.56v-3.76Z"/><path class="cls-2" d="m283.61,41.79c-.25,0-.9-.06-1.32-.12-.6-.08-.81-.4-.91-1.39-.15-1.25-.15-3.7-.15-6.54v-5.33c0-4.72,0-5.57.06-6.53.06-1.1.33-1.34.86-1.43.36-.06.52-.09.7-.09.32,0,.56-.21.56-.5,0-.37-.27-.56-.8-.56-.65,0-1.8.05-2.47.07-.27.01-.45.02-.5.02s-.22,0-.47-.02c-.67-.03-1.87-.07-2.59-.07-.53,0-.8.19-.8.56,0,.28.24.5.56.5.17,0,.54.02.87.11.43.1.72.37.79,1.41.06.96.06,1.81.06,6.53v5.33c0,2.84,0,5.28-.15,6.53-.12.87-.25,1.32-.63,1.4-.32.07-.63.11-.84.11-.38,0-.56.26-.56.5,0,.37.27.56.8.56.65,0,1.8-.05,2.47-.07.27-.01.45-.02.5-.02.03,0,.16,0,.35.01.68.03,2.09.08,3.38.08.74,0,.8-.43.8-.56,0-.24-.17-.5-.56-.5Z"/><path class="cls-2" d="m300.04,33.9l6.49-.02,2.82,7.45c.11.28.03.4.04.4-.42.1-.45.42-.45.52,0,.47.5.49,1.07.52h.15c1.35.05,3.04.07,4.77.07.8,0,.92-.35.92-.56,0-.15-.06-.5-.62-.5-.28,0-.7-.03-1.13-.17-.38-.11-1.26-.36-2.4-3.18-1.31-3.27-4.1-10.54-5.76-14.89-.68-1.77-1.17-3.05-1.3-3.38-.36-.94-.54-1.29-.96-1.29s-.61.43-.96,1.39l-6.88,18.82c-.56,1.56-1.12,2.49-2.29,2.64-.24.03-.65.06-.84.06-.35,0-.59.2-.59.5,0,.56.67.56.89.56.97,0,2.03-.04,2.74-.07.33-.01.58-.02.68-.02.13,0,.42.02.76.03.52.03,1.17.06,1.6.06.69,0,.77-.39.77-.56,0-.08-.03-.5-.62-.5h-.3c-.32,0-.84-.15-.84-.56,0-.5.15-1.21.41-1.93l1.82-5.39Zm.61-1.72l2.53-7.77,2.73,7.77h-5.26Zm5.51.32v-.32h0v.32Z"/><polygon class="cls-1" points="18.05 5.28 14.48 8.85 17.84 12.21 21.41 8.64 18.05 5.28 18.05 5.28"/><polygon class="cls-1" points="41.93 36.3 54.84 49.21 58.41 45.64 45.5 32.73 41.93 36.3 41.93 36.3"/><polygon class="cls-1" points="14.01 17.83 17.59 21.4 31.84 7.14 36.92 12.22 40.5 8.65 31.84 0 14.01 17.83"/><polygon class="cls-1" points="51.47 17.84 55.04 21.41 58.41 18.04 54.84 14.46 51.47 17.84 51.47 17.84"/><rect class="cls-1" x="13.59" y="47.63" width="18.26" height="5.05" transform="translate(-28.81 30.75) rotate(-45)"/><rect class="cls-1" x="31.76" y="29.14" width="18.9" height="5.05" transform="translate(-10.32 38.41) rotate(-45)"/><polygon class="cls-1" points="42.28 17.58 56.55 31.84 51.47 36.92 55.04 40.49 63.69 31.84 45.85 14.01 42.28 17.58 42.28 17.58"/><polygon class="cls-1" points="5.29 45.64 8.86 49.21 12.22 45.85 8.65 42.28 5.29 45.64 5.29 45.64"/><rect class="cls-1" x="31.86" y="10.99" width="18.26" height="5.05" transform="translate(2.44 32.94) rotate(-45)"/><polygon class="cls-1" points="0 31.84 17.84 49.68 21.41 46.11 7.14 31.84 12.23 26.76 8.66 23.19 0 31.84 0 31.84"/><polygon class="cls-1" points="23.2 17.57 36.57 30.94 40.14 27.37 26.77 14 23.2 17.57 23.2 17.57"/><rect class="cls-1" x="43.23" y="52.55" width="5.05" height="4.76" transform="translate(-25.44 48.44) rotate(-45)"/><rect class="cls-1" x="11.01" y="13.58" width="5.05" height="18.25" transform="translate(-12.09 16.22) rotate(-45)"/><rect class="cls-1" x="29.51" y="31.75" width="5.05" height="18.91" transform="translate(-19.75 34.72) rotate(-45)"/><polygon class="cls-1" points="31.84 56.55 26.76 51.47 23.19 55.04 31.84 63.69 49.69 45.84 46.12 42.27 31.84 56.55"/><rect class="cls-1" x="13.02" y="29.49" width="18.92" height="5.05" transform="translate(-16.06 25.28) rotate(-45)"/></svg>